IKResults
version=1
nRows=11
nColumns=40
inDegrees=yes

Units are S.I. units (second, meters, Newtons, ...)
Angles are in degrees.

endheader
time	pelvis_tilt	pelvis_list	pelvis_rotation	pelvis_tx	pelvis_ty	pelvis_tz	hip_flexion_r	hip_adduction_r	hip_rotation_r	knee_angle_r	knee_angle_r_beta	ankle_angle_r	subtalar_angle_r	mtp_angle_r	hip_flexion_l	hip_adduction_l	hip_rotation_l	knee_angle_l	knee_angle_l_beta	ankle_angle_l	subtalar_angle_l	mtp_angle_l	lumbar_extension	lumbar_bending	lumbar_rotation	arm_flex_r	arm_add_r	arm_rot_r	elbow_flex_r	pro_sup_r	wrist_flex_r	wrist_dev_r	arm_flex_l	arm_add_l	arm_rot_l	elbow_flex_l	pro_sup_l	wrist_flex_l	wrist_dev_l
      0.83000000	     16.54821099	     -0.47693591	     -4.73376412	     -0.56809956	      0.95194902	     -1.03147027	     -4.78550661	     -3.39497384	     -3.96863276	    -57.58415579	     -1.00503312	     -0.71009446	    -14.94367980	      9.78766428	    -16.06192587	     -2.46671032	     28.22420263	     -7.61253738	     -0.13286384	      3.31714575	     -8.23007365	     -5.89393216	    -26.01365693	     -4.35452991	     -0.33243571	     -0.56525447	     -9.95379308	      4.58544570	     21.71104083	     89.95437384	      0.00000000	      0.00000000	      8.98001953	     11.80921102	      1.00580942	     23.36575596	     89.95437384	      0.00000000	      0.00000000
      0.84000000	     16.57743362	     -1.00052384	     -4.50232271	     -0.56325874	      0.95257096	     -1.03234030	     -4.13258482	     -2.46114473	     -3.67570806	    -56.84497531	     -0.99213198	      0.19117962	    -14.17957984	      9.50452549	    -16.42522594	     -1.93898055	     27.73965812	     -7.70386558	     -0.13445782	      3.69037533	     -7.68996710	     -5.71436057	    -26.13940898	     -3.74622177	     -0.40695077	     -0.65001058	     -9.91180647	      4.54760563	     21.78018562	     89.95437384	      0.00000000	      0.00000000	      9.67668323	     11.98962594	      0.46534850	     23.86106888	     89.95437384	      0.00000000	      0.00000000
      0.85000000	     16.57697476	     -1.34721506	     -4.28823236	     -0.55824374	      0.95298502	     -1.03358365	     -3.42981063	     -1.89687990	     -3.70716581	    -56.00995160	     -0.97755807	      0.98719351	    -13.75120989	      9.27587314	    -16.81041593	     -1.66167890	     27.38172546	     -7.65384749	     -0.13358484	      4.07984327	     -7.40612830	     -5.55838750	    -26.16873910	     -3.26617921	     -0.58655823	     -0.69985680	     -9.90477277	      4.48244843	     21.77941238	     89.95437384	      0.00000000	      0.00000000	     10.29232479	     12.09467312	      0.13899817	     24.39163568	     89.95437384	      0.00000000	      0.00000000
      0.86000000	     16.41782003	     -1.27376581	     -4.19675840	     -0.55389157	      0.95297123	     -1.03477076	     -2.25345604	     -1.90848886	     -3.80073200	    -55.50398026	     -0.96872720	      1.07341658	    -13.30628095	      9.08071291	    -16.74042402	     -1.73792115	     27.21992825	     -8.02151247	     -0.14000180	      4.08762520	     -7.13744190	     -5.44041452	    -26.12409954	     -3.26335372	     -0.78682566	     -0.82918011	     -9.89363754	      4.49395407	     22.03182849	     89.95437384	      0.00000000	      0.00000000	     10.96110941	     12.22977031	      0.16525762	     25.04283644	     89.95437384	      0.00000000	      0.00000000
      0.87000000	     16.68747793	     -1.91184978	     -3.79251376	     -0.54804383	      0.95376456	     -1.03602951	     -2.29800562	     -1.01341498	     -4.00710339	    -53.84281285	     -0.93973436	      2.00846990	    -13.08084057	      8.83494531	    -17.72436182	     -1.23044960	     26.59943904	     -7.45641295	     -0.13013896	      4.68230546	     -6.66807831	     -5.10515000	    -26.33718375	     -2.42353489	     -1.05483236	     -0.83151718	     -9.83361455	      4.16885355	     21.73381722	     89.95437384	      0.00000000	      0.00000000	     11.41374863	     12.32139372	     -0.19038050	     25.53873776	     89.95437384	      0.00000000	      0.00000000
      0.88000000	     16.48002500	     -1.88266470	     -3.79774887	     -0.54310691	      0.95358372	     -1.03711831	     -1.27421367	     -1.04882579	     -4.17289676	    -52.89622722	     -0.92321333	      2.36806946	    -12.85004719	      8.66814000	    -17.72559958	     -1.32028232	     26.52640247	     -7.61301654	     -0.13287220	      4.88809876	     -6.47950328	     -5.01712884	    -26.11861091	     -2.38949266	     -1.17423448	     -0.92353511	     -9.81664134	      4.13809829	     21.69260033	     89.95437384	      0.00000000	      0.00000000	     11.93606818	     12.39061396	     -0.17124932	     26.12264724	     89.95437384	      0.00000000	      0.00000000
      0.89000000	     16.48725324	     -2.33687303	     -3.44115191	     -0.53816286	      0.95362659	     -1.03814150	     -0.79007404	     -0.37789435	     -4.43657858	    -51.40570178	     -0.89719875	      2.98305615	    -12.70585113	      8.05308592	    -18.83101338	     -1.24038780	     23.89204026	     -6.19954852	     -0.10820253	      5.95693942	     -4.24283299	     -2.20217481	    -26.18146404	     -1.78258758	     -1.41881179	     -0.86589916	     -9.64500965	      3.38368847	     21.42296601	     89.95437384	      0.00000000	      0.00000000	     12.42284598	     12.48265142	     -0.20298285	     26.81669295	     89.95437384	      0.00000000	      0.00000000
      0.90000000	     16.64406024	     -2.35694737	     -3.26520165	     -0.53292958	      0.95393631	     -1.03935490	     -0.43485867	     -0.38436651	     -4.77935363	    -49.94625472	     -0.87172659	      3.42226377	    -12.35588440	      7.88105432	    -19.14025600	     -1.24808399	     24.71763728	     -6.51376146	     -0.11368658	      5.79045474	     -4.34104244	     -2.20106642	    -26.34086468	     -1.65909816	     -1.70878919	     -0.86311565	     -9.56906334	      3.16050302	     21.21891692	     89.95437384	      0.00000000	      0.00000000	     12.82170260	     12.56902870	     -0.10905224	     27.54974158	     89.95437384	      0.00000000	      0.00000000
      0.91000000	     16.33994363	     -2.28893326	     -3.31902475	     -0.52821642	      0.95329932	     -1.04035910	      0.65514549	     -0.55351576	     -5.11972484	    -48.76769262	     -0.85115680	      3.62896873	    -12.08687804	      7.76365479	    -19.03960365	     -1.38244570	     24.84138930	     -6.62227073	     -0.11558043	      5.98630311	     -4.32514874	     -2.19857468	    -26.05747285	     -1.67234787	     -1.76787339	     -0.98494651	     -9.59245452	      3.15036473	     21.23035437	     89.95437384	      0.00000000	      0.00000000	     13.31809568	     12.59473532	     -0.09815910	     28.13196112	     89.95437384	      0.00000000	      0.00000000
      0.92000000	     16.60710188	     -2.72648765	     -2.89103458	     -0.52288890	      0.95367546	     -1.04122861	      0.58878472	      0.02449908	     -5.54478025	    -46.77394277	     -0.81635931	      4.01530023	    -11.62184011	      7.52901911	    -19.70096972	     -0.82991913	     24.87505210	     -6.62958821	     -0.11570814	      6.23531677	     -5.11801136	     -2.41227089	    -26.34931288	     -1.08464246	     -2.07351005	     -0.91561778	     -9.38875350	      2.45115276	     20.90985439	     89.95437384	      0.00000000	      0.00000000	     13.71142340	     12.69903240	     -0.08200824	     28.83669708	     89.95437384	      0.00000000	      0.00000000
      0.93000000	     16.23918425	     -2.60647973	     -2.97910822	     -0.51809278	      0.95283809	     -1.04199831	      1.67968481	     -0.19280222	     -5.88925013	    -45.44861062	     -0.79322790	      4.12557825	    -11.29059240	      7.41919426	    -19.56165631	     -1.04210733	     24.98673660	     -6.70518346	     -0.11702753	      6.43884602	     -5.09349307	     -2.41026696	    -25.97439028	     -1.17383997	     -2.08721293	     -1.04976884	     -9.38528355	      2.43011561	     20.88459744	     89.95437384	      0.00000000	      0.00000000	     14.17873110	     12.70247044	     -0.06098272	     29.39159020	     89.95437384	      0.00000000	      0.00000000
